<svg xmlns="http://www.w3.org/2000/svg" xmlns:xlink="http://www.w3.org/1999/xlink" width="81.788mm" height="61.468mm" viewBox="3943 3040 322 242"><title></title><style type="text/css">
*[layerid="1"] {stroke:#000000;fill:#000000;}
*[layerid="2"] {stroke:#000000;fill:#000000;}
*[layerid="3"] {stroke:#000000;fill:#000000;}
*[layerid="4"] {stroke:#000000;fill:#000000;}
*[layerid="5"] {stroke:#000000;fill:#000000;}
*[layerid="6"] {stroke:#000000;fill:#000000;}
*[layerid="7"] {stroke:#000000;fill:#000000;}
*[layerid="8"] {stroke:#000000;fill:#000000;}
*[layerid="9"] {stroke:#000000;fill:#000000;}
*[layerid="10"] {stroke:#000000;fill:#000000;}
*[layerid="11"] {stroke:#000000;fill:#000000;}
*[layerid="12"] {stroke:#000000;fill:#000000;}
*[layerid="13"] {stroke:#000000;fill:#000000;}
*[layerid="14"] {stroke:#000000;fill:#000000;}
*[layerid="15"] {stroke:#000000;fill:#000000;}
*[layerid="19"] {stroke:#000000;fill:#000000;}
*[layerid="21"] {stroke:#000000;fill:#000000;}
*[layerid="22"] {stroke:#000000;fill:#000000;}
*[layerid="23"] {stroke:#000000;fill:#000000;}
*[layerid="24"] {stroke:#000000;fill:#000000;}
*[layerid="25"] {stroke:#000000;fill:#000000;}
*[layerid="26"] {stroke:#000000;fill:#000000;}
*[layerid="27"] {stroke:#000000;fill:#000000;}
*[layerid="28"] {stroke:#000000;fill:#000000;}
*[layerid="29"] {stroke:#000000;fill:#000000;}
*[layerid="30"] {stroke:#000000;fill:#000000;}
*[layerid="31"] {stroke:#000000;fill:#000000;}
*[layerid="32"] {stroke:#000000;fill:#000000;}
*[layerid="33"] {stroke:#000000;fill:#000000;}
*[layerid="34"] {stroke:#000000;fill:#000000;}
*[layerid="35"] {stroke:#000000;fill:#000000;}
*[layerid="36"] {stroke:#000000;fill:#000000;}
*[layerid="37"] {stroke:#000000;fill:#000000;}
*[layerid="38"] {stroke:#000000;fill:#000000;}
*[layerid="39"] {stroke:#000000;fill:#000000;}
*[layerid="40"] {stroke:#000000;fill:#000000;}
*[layerid="41"] {stroke:#000000;fill:#000000;}
*[layerid="42"] {stroke:#000000;fill:#000000;}
*[layerid="43"] {stroke:#000000;fill:#000000;}
*[layerid="44"] {stroke:#000000;fill:#000000;}
*[layerid="45"] {stroke:#000000;fill:#000000;}
*[layerid="46"] {stroke:#000000;fill:#000000;}
*[layerid="47"] {stroke:#000000;fill:#000000;}
*[layerid="48"] {stroke:#000000;fill:#000000;}
*[layerid="49"] {stroke:#000000;fill:#000000;}
*[layerid="50"] {stroke:#000000;fill:#000000;}
*[layerid="51"] {stroke:#000000;fill:#000000;}
*[layerid="52"] {stroke:#000000;fill:#000000;}
*[layerid="99"] {stroke:#000000;fill:#000000;}
*[layerid="100"] {stroke:#000000;fill:#000000;}
*[layerid="101"] {stroke:#000000;fill:#000000;}
*[layerid="Hole"] {stroke:#000000;fill:#000000;}
*[layerid="DRCError"] {stroke:#000000;fill:#000000;}
*[fill="none"] {fill: none;}
*[stroke="none"] {stroke: none;}
path, polyline, polygon, line {stroke-linecap:round;}
g[c_partid="part_pad"][layerid="1"] ellipse:not([c_etype="pad_outer"]) {fill:#000000;}
g[c_partid="part_pad"][layerid="1"] polygon:not([c_etype="pad_outer"]) {fill:#000000;}
g[c_partid="part_pad"][layerid="1"] polyline:not([c_etype="pad_outer"]) {stroke:#000000;}
g[c_partid="part_pad"][layerid="2"] ellipse:not([c_etype="pad_outer"]) {fill:#000000;}
g[c_partid="part_pad"][layerid="2"] polygon:not([c_etype="pad_outer"]) {fill:#000000;}
g[c_partid="part_pad"][layerid="2"] polyline:not([c_etype="pad_outer"]) {stroke:#000000;}
g[c_partid="part_pad"][layerid="11"] ellipse:not([c_etype="pad_outer"]) {fill:#000000;}
g[c_partid="part_pad"][layerid="11"] polygon:not([c_etype="pad_outer"]) {fill:#000000;}
g[c_partid="part_pad"][layerid="11"] polyline:not([c_etype="pad_outer"]) {stroke:#000000;}
g[c_partid="part_pad"][layerid="11"] circle {fill:#FFFFFF;}
g[c_partid="part_pad"][layerid="11"] > polyline:nth-of-type(2) {stroke:#FFFFFF;}
g[c_partid="part_pad"][layerid="11"][c_shape="ELLIPSE"]  polyline:nth-last-of-type(1) {stroke:#FFFFFF;}
g[c_partid="part_pad"][layerid="11"][c_shape="RECT"]  polyline:nth-last-of-type(1) {stroke:#FFFFFF;}
g[c_partid="part_pad"][layerid="11"][c_shape="POLYGON"]  polyline:nth-last-of-type(1) {stroke:#FFFFFF;}
g[c_partid="part_via"] > * + circle, #gCurParts g[c_partid="part_via"] > * + circle {fill:#FFFFFF;}
g[c_partid="part_pad"] > polygon[c_etype="pad_outer"], #gCurParts g[c_partid="part_pad"] > polygon[c_etype="pad_outer"] {stroke-linejoin: round;stroke-miterlimit: 100;}
g[c_partid="part_hole"] > circle {fill: #FFFFFF;}path, polyline, polygon {stroke-linejoin:round;}
rect, circle, ellipse, polyline, line, polygon, path {shape-rendering:crispEdges;}
</style>
<rect x="3943" y="3040" width="322" height="242" fill="#FFFFFF" stroke="none"/><g c_partid="part_pad" c_etype="pinpart" c_origin="4215,3079.158" layerid="11" number="1" net="U2_E" plated ="Y"  id="gge57" locked="0" c_rotation="270" c_width="8.2677" c_height="8.2677" title="U2_E" c_shape="ELLIPSE" pasteexpansion="0" solderexpansion="0.1969"><ellipse c_etype="pad_shell" cx="4215" cy="3079.158" rx="4.13385" ry="4.13385" layerid="11" stroke-width="0"/><circle c_etype="pad_hole" cx="4215.0005" cy="3079.1575" r="2.3622" layerid="11" stroke-width="0"/></g><g c_partid="part_pad" c_etype="pinpart" c_origin="4215,3098.843" layerid="11" number="2" net="R4_3" plated ="Y"  id="gge72" locked="0" c_rotation="270" c_width="8.2677" c_height="8.2677" title="R4_3" c_shape="ELLIPSE" pasteexpansion="0" solderexpansion="0.1969"><ellipse c_etype="pad_shell" cx="4215" cy="3098.843" rx="4.13385" ry="4.13385" layerid="11" stroke-width="0"/><circle c_etype="pad_hole" cx="4215.0005" cy="3098.8425" r="2.3622" layerid="11" stroke-width="0"/></g><g c_partid="part_pad" c_etype="pinpart" c_origin="4215,3232.5" layerid="11" number="1" net="U2_B" plated ="Y"  id="gge141" locked="0" c_rotation="270" c_width="6.2992" c_height="6.2992" title="U2_B" c_shape="ELLIPSE" pasteexpansion="0" solderexpansion="0.2"><ellipse c_etype="pad_shell" cx="4215" cy="3232.5" rx="3.1496" ry="3.1496" layerid="11" stroke-width="0"/><circle c_etype="pad_hole" cx="4215" cy="3232.5" r="1.9685" layerid="11" stroke-width="0"/></g><g c_partid="part_pad" c_etype="pinpart" c_origin="4215,3252.5" layerid="11" number="2" net="R4_3" plated ="Y"  id="gge156" locked="0" c_rotation="270" c_width="6.2992" c_height="6.2992" title="R4_3" c_shape="ELLIPSE" pasteexpansion="0" solderexpansion="0.2"><ellipse c_etype="pad_shell" cx="4215" cy="3252.5" rx="3.1496" ry="3.1496" layerid="11" stroke-width="0"/><circle c_etype="pad_hole" cx="4215" cy="3252.5" r="1.9685" layerid="11" stroke-width="0"/></g><g c_partid="part_pad" c_etype="pinpart" c_origin="4078,3078.658" layerid="11" number="1" net="D1_3" plated ="Y"  id="gge231" locked="0" c_rotation="270" c_width="7.0866" c_height="7.0866" title="D1_3" c_shape="ELLIPSE" pasteexpansion="0" solderexpansion="0.2"><ellipse c_etype="pad_shell" cx="4078" cy="3078.658" rx="3.5433" ry="3.5433" layerid="11" stroke-width="0"/><circle c_etype="pad_hole" cx="4078" cy="3078.657" r="2.1654" layerid="11" stroke-width="0"/></g><g c_partid="part_pad" c_etype="pinpart" c_origin="4078,3098.343" layerid="11" number="2" net="D1_1" plated ="Y"  id="gge246" locked="0" c_rotation="270" c_width="7.0866" c_height="7.0866" title="D1_1" c_shape="ELLIPSE" pasteexpansion="0" solderexpansion="0.2"><ellipse c_etype="pad_shell" cx="4078" cy="3098.343" rx="3.5433" ry="3.5433" layerid="11" stroke-width="0"/><circle c_etype="pad_hole" cx="4078" cy="3098.342" r="2.1654" layerid="11" stroke-width="0"/></g><g c_partid="part_pad" c_etype="pinpart" c_origin="4078,3237.158" layerid="11" number="1" net="U2_B" plated ="Y"  id="gge321" locked="0" c_rotation="270" c_width="7.0866" c_height="7.0866" title="U2_B" c_shape="ELLIPSE" pasteexpansion="0" solderexpansion="0.2"><ellipse c_etype="pad_shell" cx="4078" cy="3237.158" rx="3.5433" ry="3.5433" layerid="11" stroke-width="0"/><circle c_etype="pad_hole" cx="4078" cy="3237.157" r="2.1654" layerid="11" stroke-width="0"/></g><g c_partid="part_pad" c_etype="pinpart" c_origin="4078,3256.843" layerid="11" number="2" net="R4_3" plated ="Y"  id="gge336" locked="0" c_rotation="270" c_width="7.0866" c_height="7.0866" title="R4_3" c_shape="ELLIPSE" pasteexpansion="0" solderexpansion="0.2"><ellipse c_etype="pad_shell" cx="4078" cy="3256.843" rx="3.5433" ry="3.5433" layerid="11" stroke-width="0"/><circle c_etype="pad_hole" cx="4078" cy="3256.842" r="2.1654" layerid="11" stroke-width="0"/></g><g c_partid="part_pad" c_etype="pinpart" c_origin="4154.5,3068.264" layerid="11" number="2" net="U2_E" plated ="Y"  id="gge417" locked="0" c_rotation="270" c_width="7.874" c_height="7.874" title="U2_E" c_shape="ELLIPSE" pasteexpansion="0" solderexpansion="0.2"><ellipse c_etype="pad_shell" cx="4154.5" cy="3068.264" rx="3.937" ry="3.937" layerid="11" stroke-width="0"/><circle c_etype="pad_hole" cx="4154.5" cy="3068.264" r="2.3622" layerid="11" stroke-width="0"/></g><g c_partid="part_pad" c_etype="pinpart" c_origin="4154.5,3083.421" layerid="11" number="1" net="D1_1" plated ="Y"  id="gge432" locked="0" c_rotation="270" c_width="7.874" c_height="7.874" title="D1_1" c_shape="ELLIPSE" pasteexpansion="0" solderexpansion="0.2"><ellipse c_etype="pad_shell" cx="4154.5" cy="3083.421" rx="3.937" ry="3.937" layerid="11" stroke-width="0"/><circle c_etype="pad_hole" cx="4154.5" cy="3083.421" r="2.3622" layerid="11" stroke-width="0"/></g><g c_partid="part_pad" c_etype="pinpart" c_origin="4154.5,3113.736" layerid="11" number="4" net="R4_3" plated ="Y"  id="gge447" locked="0" c_rotation="270" c_width="7.874" c_height="7.874" title="R4_3" c_shape="ELLIPSE" pasteexpansion="0" solderexpansion="0.2"><ellipse c_etype="pad_shell" cx="4154.5" cy="3113.736" rx="3.937" ry="3.937" layerid="11" stroke-width="0"/><circle c_etype="pad_hole" cx="4154.5" cy="3113.736" r="2.3622" layerid="11" stroke-width="0"/></g><g c_partid="part_pad" c_etype="pinpart" c_origin="4154.5,3098.579" layerid="11" number="3" net="D1_3" plated ="Y"  id="gge462" locked="0" c_rotation="270" c_width="7.874" c_height="7.874" title="D1_3" c_shape="ELLIPSE" pasteexpansion="0" solderexpansion="0.2"><ellipse c_etype="pad_shell" cx="4154.5" cy="3098.579" rx="3.937" ry="3.937" layerid="11" stroke-width="0"/><circle c_etype="pad_hole" cx="4154.5" cy="3098.579" r="2.3622" layerid="11" stroke-width="0"/></g><g c_partid="part_pad" c_etype="pinpart" c_origin="4108,3190.374" layerid="11" number="1" net="U2_E" plated ="Y"  id="gge543" locked="0" c_rotation="270" c_width="7.0866" c_height="7.0866" title="U2_E" c_shape="ELLIPSE" pasteexpansion="0" solderexpansion="0.2"><ellipse c_etype="pad_shell" cx="4108" cy="3190.374" rx="3.5433" ry="3.5433" layerid="11" stroke-width="0"/><circle c_etype="pad_hole" cx="4108" cy="3190.3738" r="1.9685" layerid="11" stroke-width="0"/></g><g c_partid="part_pad" c_etype="pinpart" c_origin="4108,3224.626" layerid="11" number="2" net="U2_B" plated ="Y"  id="gge558" locked="0" c_rotation="270" c_width="7.0866" c_height="7.0866" title="U2_B" c_shape="ELLIPSE" pasteexpansion="0" solderexpansion="0.2"><ellipse c_etype="pad_shell" cx="4108" cy="3224.626" rx="3.5433" ry="3.5433" layerid="11" stroke-width="0"/><circle c_etype="pad_hole" cx="4108" cy="3224.6262" r="1.9685" layerid="11" stroke-width="0"/></g><g c_partid="part_pad" c_etype="pinpart" c_origin="4088.5,3210.5" layerid="11" number="2" net="LED2_2" plated ="Y"  id="gge636" locked="0" c_rotation="0" c_width="6" c_height="6" title="LED2_2" c_shape="ELLIPSE" pasteexpansion="0" solderexpansion="0.2"><ellipse c_etype="pad_shell" cx="4088.5" cy="3210.5" rx="3" ry="3" layerid="11" stroke-width="0"/><circle c_etype="pad_hole" cx="4088.5001" cy="3210.5" r="1.7717" layerid="11" stroke-width="0"/></g><g c_partid="part_pad" c_etype="pinpart" c_origin="4078.5,3210.5" layerid="11" number="1" net="U2_B" plated ="Y"  id="gge651" locked="0" c_rotation="0" c_width="6" c_height="6" title="U2_B" c_shape="ELLIPSE" pasteexpansion="0" solderexpansion="0.2"><ellipse c_etype="pad_shell" cx="4078.5" cy="3210.5" rx="3" ry="3" layerid="11" stroke-width="0"/><circle c_etype="pad_hole" cx="4078.5001" cy="3210.5" r="1.7717" layerid="11" stroke-width="0"/></g><g c_partid="part_pad" c_etype="pinpart" c_origin="4170,3198.075" layerid="11" number="1" net="R4_3" plated ="Y"  id="gge720" locked="0" c_rotation="90" c_width="7.4" c_height="7.4" title="R4_3" c_shape="ELLIPSE" pasteexpansion="0" solderexpansion="0.2"><ellipse c_etype="pad_shell" cx="4170" cy="3198.075" rx="3.7" ry="3.7" layerid="11" stroke-width="0"/><circle c_etype="pad_hole" cx="4170" cy="3198.0748" r="1.9685" layerid="11" stroke-width="0"/></g><g c_partid="part_pad" c_etype="pinpart" c_origin="4170,3144.925" layerid="11" number="2" net="LED2_2" plated ="Y"  id="gge735" locked="0" c_rotation="90" c_width="7.4" c_height="7.4" title="LED2_2" c_shape="ELLIPSE" pasteexpansion="0" solderexpansion="0.2"><ellipse c_etype="pad_shell" cx="4170" cy="3144.925" rx="3.7" ry="3.7" layerid="11" stroke-width="0"/><circle c_etype="pad_hole" cx="4170" cy="3144.9252" r="1.9685" layerid="11" stroke-width="0"/></g><g c_partid="part_pad" c_etype="pinpart" c_origin="4071,3178.685" layerid="11" number="3" net="R4_3" plated ="Y"  id="gge825" locked="0" c_rotation="180" c_width="7.874" c_height="7.874" title="R4_3" c_shape="ELLIPSE" pasteexpansion="0" solderexpansion="0.2"><ellipse c_etype="pad_shell" cx="4071" cy="3178.685" rx="3.937" ry="3.937" layerid="11" stroke-width="0"/><circle c_etype="pad_hole" cx="4071" cy="3178.6851" r="2.5591" layerid="11" stroke-width="0"/></g><g c_partid="part_pad" c_etype="pinpart" c_origin="4071,3159" layerid="11" number="2" net="R4_3" plated ="Y"  id="gge840" locked="0" c_rotation="180" c_width="7.874" c_height="7.874" title="R4_3" c_shape="ELLIPSE" pasteexpansion="0" solderexpansion="0.2"><ellipse c_etype="pad_shell" cx="4071" cy="3159" rx="3.937" ry="3.937" layerid="11" stroke-width="0"/><circle c_etype="pad_hole" cx="4071" cy="3159" r="2.5591" layerid="11" stroke-width="0"/></g><g c_partid="part_pad" c_etype="pinpart" c_origin="4071,3139.315" layerid="11" number="1" net="U2_C" plated ="Y"  id="gge855" locked="0" c_rotation="180" c_width="7.874" c_height="7.874" title="U2_C" c_shape="ELLIPSE" pasteexpansion="0" solderexpansion="0.2"><ellipse c_etype="pad_shell" cx="4071" cy="3139.315" rx="3.937" ry="3.937" layerid="11" stroke-width="0"/><circle c_etype="pad_hole" cx="4071" cy="3139.3148" r="2.5591" layerid="11" stroke-width="0"/></g><g c_partid="part_pad" c_etype="pinpart" c_origin="4202.5,3140.489" layerid="11" number="1" net="R4_3" plated ="Y"  id="gge921" locked="0" c_rotation="270" c_width="6" c_height="6" title="R4_3" c_shape="ELLIPSE" pasteexpansion="0" solderexpansion="0.2"><ellipse c_etype="pad_shell" cx="4202.5" cy="3140.489" rx="3" ry="3" layerid="11" stroke-width="0"/><circle c_etype="pad_hole" cx="4202.5" cy="3140.4881" r="1.9685" layerid="11" stroke-width="0"/></g><g c_partid="part_pad" c_etype="pinpart" c_origin="4202.5,3201.512" layerid="11" number="2" net="U2_C" plated ="Y"  id="gge936" locked="0" c_rotation="270" c_width="6" c_height="6" title="U2_C" c_shape="ELLIPSE" pasteexpansion="0" solderexpansion="0.2"><ellipse c_etype="pad_shell" cx="4202.5" cy="3201.512" rx="3" ry="3" layerid="11" stroke-width="0"/><circle c_etype="pad_hole" cx="4202.5" cy="3201.5115" r="1.9685" layerid="11" stroke-width="0"/></g><g c_partid="part_pad" c_etype="pinpart" c_origin="4140.5,3151.724" layerid="11" number="1" net="U2_C" plated ="Y"  id="gge1005" locked="0" c_rotation="270" c_width="6" c_height="6" title="U2_C" c_shape="ELLIPSE" pasteexpansion="0" solderexpansion="0.2"><ellipse c_etype="pad_shell" cx="4140.5" cy="3151.724" rx="3" ry="3" layerid="11" stroke-width="0"/><circle c_etype="pad_hole" cx="4140.5" cy="3151.7244" r="1.9685" layerid="11" stroke-width="0"/></g><g c_partid="part_pad" c_etype="pinpart" c_origin="4140.5,3192.276" layerid="11" number="2" net="U2_B" plated ="Y"  id="gge1020" locked="0" c_rotation="270" c_width="6" c_height="6" title="U2_B" c_shape="ELLIPSE" pasteexpansion="0" solderexpansion="0.2"><ellipse c_etype="pad_shell" cx="4140.5" cy="3192.276" rx="3" ry="3" layerid="11" stroke-width="0"/><circle c_etype="pad_hole" cx="4140.5" cy="3192.2756" r="1.9685" layerid="11" stroke-width="0"/></g><g c_partid="part_pad" c_etype="pinpart" c_origin="4158,3235.5" layerid="11" number="C" net="U2_C" plated ="Y"  id="gge1062" locked="0" c_rotation="270" c_width="7.874" c_height="9.8425" title="U2_C" c_shape="RECT" pasteexpansion="0" solderexpansion="0.4"><polygon  c_etype="pad_shell" points="4162.92 3231.56 4162.92 3239.44 4153.08 3239.44 4153.08 3231.56" layerid="11" stroke-width="0" /><circle c_etype="pad_hole" cx="4158" cy="3235.5" r="2.3622" layerid="11" stroke-width="0"/></g><g c_partid="part_pad" c_etype="pinpart" c_origin="4158,3255.5" layerid="11" number="E" net="U2_E" plated ="Y"  id="gge1077" locked="0" c_rotation="270" c_width="7.874" c_height="9.8425" title="U2_E" c_shape="OVAL" pasteexpansion="0" solderexpansion="0.4"><polyline  c_etype="pad_shell" points="4158.9842 3255.5 4157.0158 3255.5" layerid="11" stroke-width="7.874" /><circle c_etype="pad_hole" cx="4158" cy="3255.5" r="2.3622" layerid="11" stroke-width="0"/></g><g c_partid="part_pad" c_etype="pinpart" c_origin="4158,3245.5" layerid="11" number="B" net="U2_B" plated ="Y"  id="gge1092" locked="0" c_rotation="270" c_width="7.874" c_height="9.8425" title="U2_B" c_shape="OVAL" pasteexpansion="0" solderexpansion="0.4"><polyline  c_etype="pad_shell" points="4158.9842 3245.5 4157.0158 3245.5" layerid="11" stroke-width="7.874" /><circle c_etype="pad_hole" cx="4158" cy="3245.5" r="2.3622" layerid="11" stroke-width="0"/></g><polyline points="4215.7 3072.6995 4215.7 3066.0995" stroke-width="1"  stroke-linecap="round" fill="none" layerid="3" net="" id="gge33" locked="0" /><polyline points="4212.4 3069.2995 4219.2 3069.2995" stroke-width="1"  stroke-linecap="round" fill="none" layerid="3" net="" id="gge36" locked="0" /><polyline points="4215 3224.5 4215 3228.5" stroke-width="1"  stroke-linecap="round" fill="none" layerid="3" net="" id="gge123" locked="0" /><polyline points="4218 3226.5 4212 3226.5" stroke-width="1"  stroke-linecap="round" fill="none" layerid="3" net="" id="gge126" locked="0" /><polyline points="4099.6536 3068.657 4099.6536 3108.342" stroke-width="1"  stroke-linecap="round" fill="none" layerid="3" net="" id="gge189" locked="0" /><polyline points="4099.6536 3108.342 4056.3464 3108.342" stroke-width="1"  stroke-linecap="round" fill="none" layerid="3" net="" id="gge192" locked="0" /><polyline points="4099.6536 3068.657 4056.3464 3068.657" stroke-width="1"  stroke-linecap="round" fill="none" layerid="3" net="" id="gge195" locked="0" /><polyline points="4056.3464 3068.657 4056.3464 3075.9995" stroke-width="1"  stroke-linecap="round" fill="none" layerid="3" net="" id="gge198" locked="0" /><polyline points="4056.5 3080.9995 4056.5 3095.9995" stroke-width="1"  stroke-linecap="round" fill="none" layerid="3" net="" id="gge201" locked="0" /><polyline points="4056.3464 3108.342 4056.3464 3101.9995" stroke-width="1"  stroke-linecap="round" fill="none" layerid="3" net="" id="gge204" locked="0" /><polyline points="4068.5 3075.9995 4068.5 3080.9995 4035.5 3080.9995 4035.5 3075.9995 4068.5 3075.9995" stroke-width="1"  stroke-linecap="round" fill="none" layerid="3" net="" id="gge213" locked="0" /><polyline points="4068.5 3096.4995 4068.5 3101.4995 4035.5 3101.4995 4035.5 3096.4995 4068.5 3096.4995" stroke-width="1"  stroke-linecap="round" fill="none" layerid="3" net="" id="gge216" locked="0" /><polyline points="4099.6536 3227.157 4099.6536 3266.842" stroke-width="1"  stroke-linecap="round" fill="none" layerid="3" net="" id="gge279" locked="0" /><polyline points="4099.6536 3266.842 4056.3464 3266.842" stroke-width="1"  stroke-linecap="round" fill="none" layerid="3" net="" id="gge282" locked="0" /><polyline points="4099.6536 3227.157 4056.3464 3227.157" stroke-width="1"  stroke-linecap="round" fill="none" layerid="3" net="" id="gge285" locked="0" /><polyline points="4056.3464 3227.157 4056.3464 3234.4995" stroke-width="1"  stroke-linecap="round" fill="none" layerid="3" net="" id="gge288" locked="0" /><polyline points="4056.5 3239.4995 4056.5 3254.4995" stroke-width="1"  stroke-linecap="round" fill="none" layerid="3" net="" id="gge291" locked="0" /><polyline points="4056.3464 3266.842 4056.3464 3260.4995" stroke-width="1"  stroke-linecap="round" fill="none" layerid="3" net="" id="gge294" locked="0" /><polyline points="4068.5 3234.4995 4068.5 3239.4995 4035.5 3239.4995 4035.5 3234.4995 4068.5 3234.4995" stroke-width="1"  stroke-linecap="round" fill="none" layerid="3" net="" id="gge303" locked="0" /><polyline points="4068.5 3254.9995 4068.5 3259.9995 4035.5 3259.9995 4035.5 3254.9995 4068.5 3254.9995" stroke-width="1"  stroke-linecap="round" fill="none" layerid="3" net="" id="gge306" locked="0" /><polyline points="4150.1693 3120.0354 4164.5394 3120.0354" stroke-width="1"  stroke-linecap="round" fill="none" layerid="3" net="" id="gge381" locked="0" /><polyline points="4150.1693 3075.8425 4164.5394 3075.8425" stroke-width="1"  stroke-linecap="round" fill="none" layerid="3" net="" id="gge384" locked="0" /><polyline points="4150.1693 3061.9646 4164.5394 3061.9646" stroke-width="1"  stroke-linecap="round" fill="none" layerid="3" net="" id="gge387" locked="0" /><polyline points="4161.1929 3115.2126 4161.1929 3112.063" stroke-width="0.8"  stroke-linecap="round" fill="none" layerid="3" net="" id="gge390" locked="0" /><polyline points="4150.1693 3080.6457 4150.1693 3071.1969" stroke-width="1"  stroke-linecap="round" fill="none" layerid="3" net="" id="gge393" locked="0" /><polyline points="4150.1693 3110.8425 4150.1693 3101.3937" stroke-width="1"  stroke-linecap="round" fill="none" layerid="3" net="" id="gge396" locked="0" /><polyline points="4150.1693 3095.7244 4150.1693 3086.2756" stroke-width="1"  stroke-linecap="round" fill="none" layerid="3" net="" id="gge399" locked="0" /><polyline points="4150.1693 3120.0354 4150.1693 3116.5906" stroke-width="1"  stroke-linecap="round" fill="none" layerid="3" net="" id="gge402" locked="0" /><polyline points="4164.5394 3120.0354 4164.5394 3061.9646" stroke-width="1"  stroke-linecap="round" fill="none" layerid="3" net="" id="gge405" locked="0" /><polyline points="4159.6181 3068.1654 4162.7677 3068.1654" stroke-width="0.8"  stroke-linecap="round" fill="none" layerid="3" net="" id="gge408" locked="0" /><polyline points="4161.1929 3069.7402 4161.1929 3066.5906" stroke-width="0.8"  stroke-linecap="round" fill="none" layerid="3" net="" id="gge411" locked="0" /><polyline points="4150.1693 3065.4094 4150.1693 3061.9646" stroke-width="1"  stroke-linecap="round" fill="none" layerid="3" net="" id="gge414" locked="0" /><polyline points="4113.5118 3197.2638 4113.5118 3217.7362" stroke-width="1"  stroke-linecap="round" fill="none" layerid="3" net="" id="gge522" locked="0" /><polyline points="4113.5118 3217.7362 4102.4882 3217.7362" stroke-width="1"  stroke-linecap="round" fill="none" layerid="3" net="" id="gge525" locked="0" /><polyline points="4102.4882 3197.2638 4102.4882 3217.7362" stroke-width="1"  stroke-linecap="round" fill="none" layerid="3" net="" id="gge528" locked="0" /><polyline points="4113.5118 3197.2638 4102.4882 3197.2638" stroke-width="1"  stroke-linecap="round" fill="none" layerid="3" net="" id="gge531" locked="0" /><polyline points="4113.5118 3201.0404 4102.4882 3201.0404" stroke-width="1"  stroke-linecap="round" fill="none" layerid="3" net="" id="gge534" locked="0" /><polyline points="4070.1142 3204.9882 4075.626 3204.9882" stroke-width="1"  stroke-linecap="round" fill="none" layerid="3" net="" id="gge603" locked="0" /><polyline points="4072.9939 3204.9882 4073.0279 3208.1352 4072.9939 3204.9882" stroke-width="1"  stroke-linecap="round" fill="none" layerid="3" net="" id="gge606" locked="0" /><polyline points="4072.9939 3204.9882 4072.9939 3202.2323" stroke-width="1"  stroke-linecap="round" fill="none" layerid="3" net="" id="gge609" locked="0" /><polyline points="4089.7993 3214.1872 4089.7993 3215.2244" stroke-width="1"  stroke-linecap="round" fill="none" layerid="3" net="" id="gge612" locked="0" /><polyline points="4089.7993 3205.7756 4089.7993 3206.8128" stroke-width="1"  stroke-linecap="round" fill="none" layerid="3" net="" id="gge615" locked="0" /><polyline points="4164.0945 3190.2008 4164.0945 3152.7992" stroke-width="1"  stroke-linecap="round" fill="none" layerid="3" net="" id="gge702" locked="0" /><polyline points="4164.0945 3152.7992 4175.9055 3152.7992" stroke-width="1"  stroke-linecap="round" fill="none" layerid="3" net="" id="gge705" locked="0" /><polyline points="4175.9055 3152.7992 4175.9055 3190.2008" stroke-width="1"  stroke-linecap="round" fill="none" layerid="3" net="" id="gge708" locked="0" /><polyline points="4175.9055 3190.2008 4164.0945 3190.2008" stroke-width="1"  stroke-linecap="round" fill="none" layerid="3" net="" id="gge711" locked="0" /><polyline points="4051.4253 3170.565 4023.8662 3170.565" stroke-width="1"  stroke-linecap="round" fill="none" layerid="3" net="" id="gge768" locked="0" /><polyline points="4023.8662 3170.565 4023.8662 3147.5001 4051.4253 3147.5001" stroke-width="1"  stroke-linecap="round" fill="none" layerid="3" net="" id="gge771" locked="0" /><polyline points="4023.8662 3169.0001 3953 3169.0001" stroke-width="1"  stroke-linecap="round" fill="none" layerid="3" net="" id="gge774" locked="0" /><polyline points="4023.8662 3148.9224 3953 3148.9224" stroke-width="1"  stroke-linecap="round" fill="none" layerid="3" net="" id="gge777" locked="0" /><polyline points="4056 3179.0001 4051.5 3179.0001" stroke-width="1"  stroke-linecap="round" fill="none" layerid="3" net="" id="gge780" locked="0" /><polyline points="3953 3169.0001 3953 3148.9224" stroke-width="1"  stroke-linecap="round" fill="none" layerid="3" net="" id="gge783" locked="0" /><polyline points="4051.5 3179.0001 4051.5 3139.1351" stroke-width="1"  stroke-linecap="round" fill="none" layerid="3" net="" id="gge786" locked="0" /><polyline points="4051.5 3139.0001 4056 3139.0001" stroke-width="1"  stroke-linecap="round" fill="none" layerid="3" net="" id="gge789" locked="0" /><polyline points="4100.5 3127.5001 4056 3127.5001" stroke-width="1"  stroke-linecap="round" fill="none" layerid="3" net="" id="gge792" locked="0" /><polyline points="4056 3190.5001 4100.5 3190.5001" stroke-width="1"  stroke-linecap="round" fill="none" layerid="3" net="" id="gge795" locked="0" /><polyline points="4100.5 3190.5001 4100.5 3127.504" stroke-width="1"  stroke-linecap="round" fill="none" layerid="3" net="" id="gge798" locked="0" /><polyline points="4056 3190.5001 4056 3127.5079" stroke-width="1"  stroke-linecap="round" fill="none" layerid="3" net="" id="gge801" locked="0" /><polyline points="4202.5 3147.9955 4202.5 3144.9955" stroke-width="1"  stroke-linecap="round" fill="none" layerid="3" net="" id="gge906" locked="0" /><polyline points="4202.5 3193.9955 4202.5 3196.9955" stroke-width="1"  stroke-linecap="round" fill="none" layerid="3" net="" id="gge909" locked="0" /><polyline points="4210.374 3148.3625 4210.374 3193.6385 4194.626 3193.6385 4194.626 3148.3625 4210.374 3148.3625" stroke-width="1"  stroke-linecap="round" fill="none" layerid="3" net="" id="gge912" locked="0" /><polyline points="4145.2244 3159.5984 4145.2244 3184.4016" stroke-width="1"  stroke-linecap="round" fill="none" layerid="3" net="" id="gge975" locked="0" /><polyline points="4145.2244 3184.4016 4135.7756 3184.4016" stroke-width="1"  stroke-linecap="round" fill="none" layerid="3" net="" id="gge978" locked="0" /><polyline points="4135.7756 3184.4016 4135.7756 3159.5984" stroke-width="1"  stroke-linecap="round" fill="none" layerid="3" net="" id="gge981" locked="0" /><polyline points="4135.7756 3159.5984 4145.2244 3159.5984" stroke-width="1"  stroke-linecap="round" fill="none" layerid="3" net="" id="gge984" locked="0" /><polyline points="4168.024 3224.134 4168.024 3265.866 4149.126 3265.866 4149.126 3224.134 4168.024 3224.134" stroke-width="1"  stroke-linecap="round" fill="none" layerid="3" net="" id="gge1056" locked="0" /><polyline points="4166.055 3265.866 4166.055 3224.134" stroke-width="1"  stroke-linecap="round" fill="none" layerid="3" net="" id="gge1059" locked="0" /><g c_partid="part_pcbtext" c_etype="" c_origin="4247.5,3088" c_rotation="270" c_mirror="0" id="gge9" locked="0" layerid="3" c_shapetype="group" display="none"><path c_fontsize="4.5" c_fontfamily="" c_text="1000uF" d="M 4251.22 3087.9995 L 4251.43 3088.4095 L 4252.04 3089.0195 L 4247.75 3089.0195 M 4252.04 3091.5995 L 4251.84 3090.9895 L 4251.22 3090.5795 L 4250.2 3090.3695 L 4249.59 3090.3695 L 4248.56 3090.5795 L 4247.95 3090.9895 L 4247.75 3091.5995 L 4247.75 3092.0095 L 4247.95 3092.6195 L 4248.56 3093.0295 L 4249.59 3093.2395 L 4250.2 3093.2395 L 4251.22 3093.0295 L 4251.84 3092.6195 L 4252.04 3092.0095 L 4252.04 3091.5995 M 4252.04 3095.8095 L 4251.84 3095.1995 L 4251.22 3094.7895 L 4250.2 3094.5895 L 4249.59 3094.5895 L 4248.56 3094.7895 L 4247.95 3095.1995 L 4247.75 3095.8095 L 4247.75 3096.2195 L 4247.95 3096.8395 L 4248.56 3097.2495 L 4249.59 3097.4495 L 4250.2 3097.4495 L 4251.22 3097.2495 L 4251.84 3096.8395 L 4252.04 3096.2195 L 4252.04 3095.8095 M 4252.04 3100.0295 L 4251.84 3099.4095 L 4251.22 3098.9995 L 4250.2 3098.7995 L 4249.59 3098.7995 L 4248.56 3098.9995 L 4247.95 3099.4095 L 4247.75 3100.0295 L 4247.75 3100.4395 L 4247.95 3101.0495 L 4248.56 3101.4595 L 4249.59 3101.6595 L 4250.2 3101.6595 L 4251.22 3101.4595 L 4251.84 3101.0495 L 4252.04 3100.4395 L 4252.04 3100.0295 M 4250.61 3103.0095 L 4248.56 3103.0095 L 4247.95 3103.2195 L 4247.75 3103.6295 L 4247.75 3104.2395 L 4247.95 3104.6495 L 4248.56 3105.2595 M 4250.61 3105.2595 L 4247.75 3105.2595 M 4252.04 3106.6095 L 4247.75 3106.6095 M 4252.04 3106.6095 L 4252.04 3109.2695 M 4250 3106.6095 L 4250 3108.2495" fill="none"  stroke-width="0.6" c_note="note_name" /></g><g c_partid="part_pcbtext" c_etype="" c_origin="4240.5,3088" c_rotation="270" c_mirror="0" id="gge15" locked="0" layerid="3" c_shapetype="group" ><path c_fontsize="4.5" c_fontfamily="" c_text="C1" d="M 4244.02 3091.0695 L 4244.43 3090.8595 L 4244.84 3090.4495 L 4245.04 3090.0495 L 4245.04 3089.2295 L 4244.84 3088.8195 L 4244.43 3088.4095 L 4244.02 3088.1995 L 4243.4 3087.9995 L 4242.38 3087.9995 L 4241.77 3088.1995 L 4241.36 3088.4095 L 4240.95 3088.8195 L 4240.75 3089.2295 L 4240.75 3090.0495 L 4240.95 3090.4495 L 4241.36 3090.8595 L 4241.77 3091.0695 M 4244.22 3092.4195 L 4244.43 3092.8295 L 4245.04 3093.4395 L 4240.75 3093.4395" fill="none"  stroke-width="0.6" c_note="note_pre" /></g><g c_partid="part_pcbtext" c_etype="" c_origin="4243,3242.5" c_rotation="270" c_mirror="0" id="gge93" locked="0" layerid="3" c_shapetype="group" display="none"><path c_fontsize="4.5" c_fontfamily="" c_text="220uF" d="M 4246.52 3242.7 L 4246.72 3242.7 L 4247.13 3242.91 L 4247.34 3243.11 L 4247.54 3243.52 L 4247.54 3244.34 L 4247.34 3244.75 L 4247.13 3244.95 L 4246.72 3245.16 L 4246.31 3245.16 L 4245.9 3244.95 L 4245.29 3244.55 L 4243.25 3242.5 L 4243.25 3245.36 M 4246.52 3246.92 L 4246.72 3246.92 L 4247.13 3247.12 L 4247.34 3247.33 L 4247.54 3247.74 L 4247.54 3248.55 L 4247.34 3248.96 L 4247.13 3249.17 L 4246.72 3249.37 L 4246.31 3249.37 L 4245.9 3249.17 L 4245.29 3248.76 L 4243.25 3246.71 L 4243.25 3249.58 M 4247.54 3252.15 L 4247.34 3251.54 L 4246.72 3251.13 L 4245.7 3250.93 L 4245.09 3250.93 L 4244.06 3251.13 L 4243.45 3251.54 L 4243.25 3252.15 L 4243.25 3252.56 L 4243.45 3253.18 L 4244.06 3253.59 L 4245.09 3253.79 L 4245.7 3253.79 L 4246.72 3253.59 L 4247.34 3253.18 L 4247.54 3252.56 L 4247.54 3252.15 M 4246.11 3255.14 L 4244.06 3255.14 L 4243.45 3255.35 L 4243.25 3255.75 L 4243.25 3256.37 L 4243.45 3256.78 L 4244.06 3257.39 M 4246.11 3257.39 L 4243.25 3257.39 M 4247.54 3258.74 L 4243.25 3258.74 M 4247.54 3258.74 L 4247.54 3261.4 M 4245.5 3258.74 L 4245.5 3260.38" fill="none"  stroke-width="0.6" c_note="note_name" /></g><g c_partid="part_pcbtext" c_etype="" c_origin="4236,3242.5" c_rotation="270" c_mirror="0" id="gge99" locked="0" layerid="3" c_shapetype="group" ><path c_fontsize="4.5" c_fontfamily="" c_text="C2" d="M 4239.52 3245.57 L 4239.93 3245.36 L 4240.34 3244.95 L 4240.54 3244.55 L 4240.54 3243.73 L 4240.34 3243.32 L 4239.93 3242.91 L 4239.52 3242.7 L 4238.9 3242.5 L 4237.88 3242.5 L 4237.27 3242.7 L 4236.86 3242.91 L 4236.45 3243.32 L 4236.25 3243.73 L 4236.25 3244.55 L 4236.45 3244.95 L 4236.86 3245.36 L 4237.27 3245.57 M 4239.52 3247.12 L 4239.72 3247.12 L 4240.13 3247.33 L 4240.34 3247.53 L 4240.54 3247.94 L 4240.54 3248.76 L 4240.34 3249.17 L 4240.13 3249.37 L 4239.72 3249.58 L 4239.31 3249.58 L 4238.9 3249.37 L 4238.29 3248.96 L 4236.25 3246.92 L 4236.25 3249.78" fill="none"  stroke-width="0.6" c_note="note_pre" /></g><g c_partid="part_pcbtext" c_etype="" c_origin="4109,3087.5" c_rotation="270" c_mirror="0" id="gge177" locked="0" layerid="3" c_shapetype="group" display="none"><path c_fontsize="4.5" c_fontfamily="" c_text="AST0250204" d="M 4113.54 3089.1395 L 4109.25 3087.4995 M 4113.54 3089.1395 L 4109.25 3090.7695 M 4110.68 3088.1095 L 4110.68 3090.1595 M 4112.93 3094.9895 L 4113.34 3094.5795 L 4113.54 3093.9595 L 4113.54 3093.1495 L 4113.34 3092.5295 L 4112.93 3092.1195 L 4112.52 3092.1195 L 4112.11 3092.3295 L 4111.9 3092.5295 L 4111.7 3092.9395 L 4111.29 3094.1695 L 4111.09 3094.5795 L 4110.88 3094.7795 L 4110.47 3094.9895 L 4109.86 3094.9895 L 4109.45 3094.5795 L 4109.25 3093.9595 L 4109.25 3093.1495 L 4109.45 3092.5295 L 4109.86 3092.1195 M 4113.54 3097.7695 L 4109.25 3097.7695 M 4113.54 3096.3395 L 4113.54 3099.1995 M 4113.54 3101.7795 L 4113.34 3101.1595 L 4112.72 3100.7495 L 4111.7 3100.5495 L 4111.09 3100.5495 L 4110.06 3100.7495 L 4109.45 3101.1595 L 4109.25 3101.7795 L 4109.25 3102.1895 L 4109.45 3102.7995 L 4110.06 3103.2095 L 4111.09 3103.4095 L 4111.7 3103.4095 L 4112.72 3103.2095 L 4113.34 3102.7995 L 4113.54 3102.1895 L 4113.54 3101.7795 M 4112.52 3104.9695 L 4112.72 3104.9695 L 4113.13 3105.1695 L 4113.34 3105.3795 L 4113.54 3105.7895 L 4113.54 3106.5995 L 4113.34 3107.0095 L 4113.13 3107.2195 L 4112.72 3107.4195 L 4112.31 3107.4195 L 4111.9 3107.2195 L 4111.29 3106.8095 L 4109.25 3104.7595 L 4109.25 3107.6295 M 4113.54 3111.4295 L 4113.54 3109.3895 L 4111.7 3109.1795 L 4111.9 3109.3895 L 4112.11 3109.9995 L 4112.11 3110.6095 L 4111.9 3111.2295 L 4111.5 3111.6395 L 4110.88 3111.8395 L 4110.47 3111.8395 L 4109.86 3111.6395 L 4109.45 3111.2295 L 4109.25 3110.6095 L 4109.25 3109.9995 L 4109.45 3109.3895 L 4109.65 3109.1795 L 4110.06 3108.9795 M 4113.54 3114.4195 L 4113.34 3113.7995 L 4112.72 3113.3995 L 4111.7 3113.1895 L 4111.09 3113.1895 L 4110.06 3113.3995 L 4109.45 3113.7995 L 4109.25 3114.4195 L 4109.25 3114.8295 L 4109.45 3115.4395 L 4110.06 3115.8495 L 4111.09 3116.0495 L 4111.7 3116.0495 L 4112.72 3115.8495 L 4113.34 3115.4395 L 4113.54 3114.8295 L 4113.54 3114.4195 M 4112.52 3117.6095 L 4112.72 3117.6095 L 4113.13 3117.8095 L 4113.34 3118.0195 L 4113.54 3118.4295 L 4113.54 3119.2495 L 4113.34 3119.6495 L 4113.13 3119.8595 L 4112.72 3120.0595 L 4112.31 3120.0595 L 4111.9 3119.8595 L 4111.29 3119.4495 L 4109.25 3117.3995 L 4109.25 3120.2695 M 4113.54 3122.8495 L 4113.34 3122.2295 L 4112.72 3121.8195 L 4111.7 3121.6195 L 4111.09 3121.6195 L 4110.06 3121.8195 L 4109.45 3122.2295 L 4109.25 3122.8495 L 4109.25 3123.2495 L 4109.45 3123.8695 L 4110.06 3124.2795 L 4111.09 3124.4795 L 4111.7 3124.4795 L 4112.72 3124.2795 L 4113.34 3123.8695 L 4113.54 3123.2495 L 4113.54 3122.8495 M 4113.54 3127.8795 L 4110.68 3125.8295 L 4110.68 3128.8995 M 4113.54 3127.8795 L 4109.25 3127.8795" fill="none"  stroke-width="0.6" c_note="note_name" /></g><g c_partid="part_pcbtext" c_etype="" c_origin="4102,3087.5" c_rotation="270" c_mirror="0" id="gge183" locked="0" layerid="3" c_shapetype="group" ><path c_fontsize="4.5" c_fontfamily="" c_text="CN1" d="M 4105.52 3090.5695 L 4105.93 3090.3595 L 4106.34 3089.9495 L 4106.54 3089.5495 L 4106.54 3088.7295 L 4106.34 3088.3195 L 4105.93 3087.9095 L 4105.52 3087.6995 L 4104.9 3087.4995 L 4103.88 3087.4995 L 4103.27 3087.6995 L 4102.86 3087.9095 L 4102.45 3088.3195 L 4102.25 3088.7295 L 4102.25 3089.5495 L 4102.45 3089.9495 L 4102.86 3090.3595 L 4103.27 3090.5695 M 4106.54 3091.9195 L 4102.25 3091.9195 M 4106.54 3091.9195 L 4102.25 3094.7795 M 4106.54 3094.7795 L 4102.25 3094.7795 M 4105.72 3096.1295 L 4105.93 3096.5395 L 4106.54 3097.1495 L 4102.25 3097.1495" fill="none"  stroke-width="0.6" c_note="note_pre" /></g><g c_partid="part_pcbtext" c_etype="" c_origin="4109,3246" c_rotation="270" c_mirror="0" id="gge267" locked="0" layerid="3" c_shapetype="group" display="none"><path c_fontsize="4.5" c_fontfamily="" c_text="AST0250204" d="M 4113.54 3247.6395 L 4109.25 3245.9995 M 4113.54 3247.6395 L 4109.25 3249.2695 M 4110.68 3246.6095 L 4110.68 3248.6595 M 4112.93 3253.4895 L 4113.34 3253.0795 L 4113.54 3252.4595 L 4113.54 3251.6495 L 4113.34 3251.0295 L 4112.93 3250.6195 L 4112.52 3250.6195 L 4112.11 3250.8295 L 4111.9 3251.0295 L 4111.7 3251.4395 L 4111.29 3252.6695 L 4111.09 3253.0795 L 4110.88 3253.2795 L 4110.47 3253.4895 L 4109.86 3253.4895 L 4109.45 3253.0795 L 4109.25 3252.4595 L 4109.25 3251.6495 L 4109.45 3251.0295 L 4109.86 3250.6195 M 4113.54 3256.2695 L 4109.25 3256.2695 M 4113.54 3254.8395 L 4113.54 3257.6995 M 4113.54 3260.2795 L 4113.34 3259.6595 L 4112.72 3259.2495 L 4111.7 3259.0495 L 4111.09 3259.0495 L 4110.06 3259.2495 L 4109.45 3259.6595 L 4109.25 3260.2795 L 4109.25 3260.6895 L 4109.45 3261.2995 L 4110.06 3261.7095 L 4111.09 3261.9095 L 4111.7 3261.9095 L 4112.72 3261.7095 L 4113.34 3261.2995 L 4113.54 3260.6895 L 4113.54 3260.2795 M 4112.52 3263.4695 L 4112.72 3263.4695 L 4113.13 3263.6695 L 4113.34 3263.8795 L 4113.54 3264.2895 L 4113.54 3265.0995 L 4113.34 3265.5095 L 4113.13 3265.7195 L 4112.72 3265.9195 L 4112.31 3265.9195 L 4111.9 3265.7195 L 4111.29 3265.3095 L 4109.25 3263.2595 L 4109.25 3266.1295 M 4113.54 3269.9295 L 4113.54 3267.8895 L 4111.7 3267.6795 L 4111.9 3267.8895 L 4112.11 3268.4995 L 4112.11 3269.1095 L 4111.9 3269.7295 L 4111.5 3270.1395 L 4110.88 3270.3395 L 4110.47 3270.3395 L 4109.86 3270.1395 L 4109.45 3269.7295 L 4109.25 3269.1095 L 4109.25 3268.4995 L 4109.45 3267.8895 L 4109.65 3267.6795 L 4110.06 3267.4795 M 4113.54 3272.9195 L 4113.34 3272.2995 L 4112.72 3271.8995 L 4111.7 3271.6895 L 4111.09 3271.6895 L 4110.06 3271.8995 L 4109.45 3272.2995 L 4109.25 3272.9195 L 4109.25 3273.3295 L 4109.45 3273.9395 L 4110.06 3274.3495 L 4111.09 3274.5495 L 4111.7 3274.5495 L 4112.72 3274.3495 L 4113.34 3273.9395 L 4113.54 3273.3295 L 4113.54 3272.9195 M 4112.52 3276.1095 L 4112.72 3276.1095 L 4113.13 3276.3095 L 4113.34 3276.5195 L 4113.54 3276.9295 L 4113.54 3277.7495 L 4113.34 3278.1495 L 4113.13 3278.3595 L 4112.72 3278.5595 L 4112.31 3278.5595 L 4111.9 3278.3595 L 4111.29 3277.9495 L 4109.25 3275.8995 L 4109.25 3278.7695 M 4113.54 3281.3495 L 4113.34 3280.7295 L 4112.72 3280.3195 L 4111.7 3280.1195 L 4111.09 3280.1195 L 4110.06 3280.3195 L 4109.45 3280.7295 L 4109.25 3281.3495 L 4109.25 3281.7495 L 4109.45 3282.3695 L 4110.06 3282.7795 L 4111.09 3282.9795 L 4111.7 3282.9795 L 4112.72 3282.7795 L 4113.34 3282.3695 L 4113.54 3281.7495 L 4113.54 3281.3495 M 4113.54 3286.3795 L 4110.68 3284.3295 L 4110.68 3287.3995 M 4113.54 3286.3795 L 4109.25 3286.3795" fill="none"  stroke-width="0.6" c_note="note_name" /></g><g c_partid="part_pcbtext" c_etype="" c_origin="4102,3246" c_rotation="270" c_mirror="0" id="gge273" locked="0" layerid="3" c_shapetype="group" ><path c_fontsize="4.5" c_fontfamily="" c_text="CN2" d="M 4105.52 3249.0695 L 4105.93 3248.8595 L 4106.34 3248.4495 L 4106.54 3248.0495 L 4106.54 3247.2295 L 4106.34 3246.8195 L 4105.93 3246.4095 L 4105.52 3246.1995 L 4104.9 3245.9995 L 4103.88 3245.9995 L 4103.27 3246.1995 L 4102.86 3246.4095 L 4102.45 3246.8195 L 4102.25 3247.2295 L 4102.25 3248.0495 L 4102.45 3248.4495 L 4102.86 3248.8595 L 4103.27 3249.0695 M 4106.54 3250.4195 L 4102.25 3250.4195 M 4106.54 3250.4195 L 4102.25 3253.2795 M 4106.54 3253.2795 L 4102.25 3253.2795 M 4105.52 3254.8395 L 4105.72 3254.8395 L 4106.13 3255.0395 L 4106.34 3255.2495 L 4106.54 3255.6495 L 4106.54 3256.4695 L 4106.34 3256.8795 L 4106.13 3257.0895 L 4105.72 3257.2895 L 4105.31 3257.2895 L 4104.9 3257.0895 L 4104.29 3256.6795 L 4102.25 3254.6295 L 4102.25 3257.4995" fill="none"  stroke-width="0.6" c_note="note_pre" /></g><g c_partid="part_pcbtext" c_etype="" c_origin="4157,3054" c_rotation="0" c_mirror="0" id="gge357" locked="0" layerid="3" c_shapetype="group" display="none"><path c_fontsize="4.5" c_fontfamily="" c_text="KBP307_C87693" d="M 4157 3049.46 L 4157 3053.75 M 4159.86 3049.46 L 4157 3052.32 M 4158.02 3051.3 L 4159.86 3053.75 M 4161.21 3049.46 L 4161.21 3053.75 M 4161.21 3049.46 L 4163.05 3049.46 L 4163.67 3049.66 L 4163.87 3049.87 L 4164.08 3050.28 L 4164.08 3050.69 L 4163.87 3051.1 L 4163.67 3051.3 L 4163.05 3051.5 M 4161.21 3051.5 L 4163.05 3051.5 L 4163.67 3051.71 L 4163.87 3051.91 L 4164.08 3052.32 L 4164.08 3052.94 L 4163.87 3053.35 L 4163.67 3053.55 L 4163.05 3053.75 L 4161.21 3053.75 M 4165.43 3049.46 L 4165.43 3053.75 M 4165.43 3049.46 L 4167.27 3049.46 L 4167.88 3049.66 L 4168.09 3049.87 L 4168.29 3050.28 L 4168.29 3050.89 L 4168.09 3051.3 L 4167.88 3051.5 L 4167.27 3051.71 L 4165.43 3051.71 M 4170.05 3049.46 L 4172.3 3049.46 L 4171.07 3051.1 L 4171.69 3051.1 L 4172.1 3051.3 L 4172.3 3051.5 L 4172.5 3052.12 L 4172.5 3052.53 L 4172.3 3053.14 L 4171.89 3053.55 L 4171.28 3053.75 L 4170.66 3053.75 L 4170.05 3053.55 L 4169.85 3053.35 L 4169.64 3052.94 M 4175.08 3049.46 L 4174.47 3049.66 L 4174.06 3050.28 L 4173.85 3051.3 L 4173.85 3051.91 L 4174.06 3052.94 L 4174.47 3053.55 L 4175.08 3053.75 L 4175.49 3053.75 L 4176.1 3053.55 L 4176.51 3052.94 L 4176.72 3051.91 L 4176.72 3051.3 L 4176.51 3050.28 L 4176.1 3049.66 L 4175.49 3049.46 L 4175.08 3049.46 M 4180.93 3049.46 L 4178.89 3053.75 M 4178.07 3049.46 L 4180.93 3049.46 M 4182.28 3055.19 L 4185.96 3055.19 M 4190.38 3050.48 L 4190.18 3050.07 L 4189.77 3049.66 L 4189.36 3049.46 L 4188.54 3049.46 L 4188.13 3049.66 L 4187.72 3050.07 L 4187.52 3050.48 L 4187.31 3051.1 L 4187.31 3052.12 L 4187.52 3052.73 L 4187.72 3053.14 L 4188.13 3053.55 L 4188.54 3053.75 L 4189.36 3053.75 L 4189.77 3053.55 L 4190.18 3053.14 L 4190.38 3052.73 M 4192.75 3049.46 L 4192.14 3049.66 L 4191.94 3050.07 L 4191.94 3050.48 L 4192.14 3050.89 L 4192.55 3051.1 L 4193.37 3051.3 L 4193.98 3051.5 L 4194.39 3051.91 L 4194.6 3052.32 L 4194.6 3052.94 L 4194.39 3053.35 L 4194.19 3053.55 L 4193.57 3053.75 L 4192.75 3053.75 L 4192.14 3053.55 L 4191.94 3053.35 L 4191.73 3052.94 L 4191.73 3052.32 L 4191.94 3051.91 L 4192.35 3051.5 L 4192.96 3051.3 L 4193.78 3051.1 L 4194.19 3050.89 L 4194.39 3050.48 L 4194.39 3050.07 L 4194.19 3049.66 L 4193.57 3049.46 L 4192.75 3049.46 M 4198.81 3049.46 L 4196.76 3053.75 M 4195.95 3049.46 L 4198.81 3049.46 M 4202.61 3050.07 L 4202.41 3049.66 L 4201.8 3049.46 L 4201.39 3049.46 L 4200.77 3049.66 L 4200.36 3050.28 L 4200.16 3051.3 L 4200.16 3052.32 L 4200.36 3053.14 L 4200.77 3053.55 L 4201.39 3053.75 L 4201.59 3053.75 L 4202.2 3053.55 L 4202.61 3053.14 L 4202.82 3052.53 L 4202.82 3052.32 L 4202.61 3051.71 L 4202.2 3051.3 L 4201.59 3051.1 L 4201.39 3051.1 L 4200.77 3051.3 L 4200.36 3051.71 L 4200.16 3052.32 M 4206.83 3050.89 L 4206.62 3051.5 L 4206.21 3051.91 L 4205.6 3052.12 L 4205.4 3052.12 L 4204.78 3051.91 L 4204.37 3051.5 L 4204.17 3050.89 L 4204.17 3050.69 L 4204.37 3050.07 L 4204.78 3049.66 L 4205.4 3049.46 L 4205.6 3049.46 L 4206.21 3049.66 L 4206.62 3050.07 L 4206.83 3050.89 L 4206.83 3051.91 L 4206.62 3052.94 L 4206.21 3053.55 L 4205.6 3053.75 L 4205.19 3053.75 L 4204.58 3053.55 L 4204.37 3053.14 M 4208.59 3049.46 L 4210.84 3049.46 L 4209.61 3051.1 L 4210.22 3051.1 L 4210.63 3051.3 L 4210.84 3051.5 L 4211.04 3052.12 L 4211.04 3052.53 L 4210.84 3053.14 L 4210.43 3053.55 L 4209.81 3053.75 L 4209.2 3053.75 L 4208.59 3053.55 L 4208.38 3053.35 L 4208.18 3052.94" fill="none"  stroke-width="0.6" c_note="note_name" /></g><g c_partid="part_pcbtext" c_etype="" c_origin="4157,3061" c_rotation="0" c_mirror="0" id="gge363" locked="0" layerid="3" c_shapetype="group" ><path c_fontsize="4.5" c_fontfamily="" c_text="D1" d="M 4157 3056.46 L 4157 3060.75 M 4157 3056.46 L 4158.43 3056.46 L 4159.05 3056.66 L 4159.45 3057.07 L 4159.66 3057.48 L 4159.86 3058.1 L 4159.86 3059.12 L 4159.66 3059.73 L 4159.45 3060.14 L 4159.05 3060.55 L 4158.43 3060.75 L 4157 3060.75 M 4161.21 3057.28 L 4161.62 3057.07 L 4162.24 3056.46 L 4162.24 3060.75" fill="none"  stroke-width="0.6" c_note="note_pre" /></g><g c_partid="part_pcbtext" c_etype="" c_origin="4126,3207.25" c_rotation="270" c_mirror="0" id="gge483" locked="0" layerid="3" c_shapetype="group" display="none"><path c_fontsize="4.5" c_fontfamily="" c_text="1N4007E-E3/54" d="M 4129.72 3207.25 L 4129.93 3207.66 L 4130.54 3208.27 L 4126.25 3208.27 M 4130.54 3209.62 L 4126.25 3209.62 M 4130.54 3209.62 L 4126.25 3212.49 M 4130.54 3212.49 L 4126.25 3212.49 M 4130.54 3215.88 L 4127.68 3213.84 L 4127.68 3216.9 M 4130.54 3215.88 L 4126.25 3215.88 M 4130.54 3219.48 L 4130.34 3218.87 L 4129.72 3218.46 L 4128.7 3218.25 L 4128.09 3218.25 L 4127.06 3218.46 L 4126.45 3218.87 L 4126.25 3219.48 L 4126.25 3219.89 L 4126.45 3220.5 L 4127.06 3220.91 L 4128.09 3221.12 L 4128.7 3221.12 L 4129.72 3220.91 L 4130.34 3220.5 L 4130.54 3219.89 L 4130.54 3219.48 M 4130.54 3223.7 L 4130.34 3223.08 L 4129.72 3222.67 L 4128.7 3222.47 L 4128.09 3222.47 L 4127.06 3222.67 L 4126.45 3223.08 L 4126.25 3223.7 L 4126.25 3224.1 L 4126.45 3224.72 L 4127.06 3225.13 L 4128.09 3225.33 L 4128.7 3225.33 L 4129.72 3225.13 L 4130.34 3224.72 L 4130.54 3224.1 L 4130.54 3223.7 M 4130.54 3229.55 L 4126.25 3227.5 M 4130.54 3226.68 L 4130.54 3229.55 M 4130.54 3230.9 L 4126.25 3230.9 M 4130.54 3230.9 L 4130.54 3233.55 M 4128.5 3230.9 L 4128.5 3232.53 M 4126.25 3230.9 L 4126.25 3233.55 M 4128.09 3234.9 L 4128.09 3238.59 M 4130.54 3239.94 L 4126.25 3239.94 M 4130.54 3239.94 L 4130.54 3242.6 M 4128.5 3239.94 L 4128.5 3241.57 M 4126.25 3239.94 L 4126.25 3242.6 M 4130.54 3244.35 L 4130.54 3246.6 L 4128.9 3245.38 L 4128.9 3245.99 L 4128.7 3246.4 L 4128.5 3246.6 L 4127.88 3246.81 L 4127.47 3246.81 L 4126.86 3246.6 L 4126.45 3246.2 L 4126.25 3245.58 L 4126.25 3244.97 L 4126.45 3244.35 L 4126.65 3244.15 L 4127.06 3243.95 M 4131.36 3251.84 L 4124.81 3248.16 M 4130.54 3255.65 L 4130.54 3253.6 L 4128.7 3253.4 L 4128.9 3253.6 L 4129.11 3254.21 L 4129.11 3254.83 L 4128.9 3255.44 L 4128.5 3255.85 L 4127.88 3256.05 L 4127.47 3256.05 L 4126.86 3255.85 L 4126.45 3255.44 L 4126.25 3254.83 L 4126.25 3254.21 L 4126.45 3253.6 L 4126.65 3253.4 L 4127.06 3253.19 M 4130.54 3259.45 L 4127.68 3257.4 L 4127.68 3260.47 M 4130.54 3259.45 L 4126.25 3259.45" fill="none"  stroke-width="0.6" c_note="note_name" /></g><g c_partid="part_pcbtext" c_etype="" c_origin="4119,3207.25" c_rotation="270" c_mirror="0" id="gge489" locked="0" layerid="3" c_shapetype="group" ><path c_fontsize="4.5" c_fontfamily="" c_text="D2" d="M 4123.54 3207.25 L 4119.25 3207.25 M 4123.54 3207.25 L 4123.54 3208.68 L 4123.34 3209.3 L 4122.93 3209.7 L 4122.52 3209.91 L 4121.9 3210.11 L 4120.88 3210.11 L 4120.27 3209.91 L 4119.86 3209.7 L 4119.45 3209.3 L 4119.25 3208.68 L 4119.25 3207.25 M 4122.52 3211.67 L 4122.72 3211.67 L 4123.13 3211.87 L 4123.34 3212.08 L 4123.54 3212.49 L 4123.54 3213.3 L 4123.34 3213.71 L 4123.13 3213.92 L 4122.72 3214.12 L 4122.31 3214.12 L 4121.9 3213.92 L 4121.29 3213.51 L 4119.25 3211.46 L 4119.25 3214.33" fill="none"  stroke-width="0.6" c_note="note_pre" /></g><g c_partid="part_pcbtext" c_etype="" c_origin="4080.392,3193.51" c_rotation="0" c_mirror="0" id="gge579" locked="0" layerid="3" c_shapetype="group" display="none"><path c_fontsize="4.5" c_fontfamily="" c_text="LEDOrange orange 3AO4UD" d="M 4080.392 3188.97 L 4080.392 3193.26 M 4080.392 3193.26 L 4082.842 3193.26 M 4084.192 3188.97 L 4084.192 3193.26 M 4084.192 3188.97 L 4086.852 3188.97 M 4084.192 3191.01 L 4085.832 3191.01 M 4084.192 3193.26 L 4086.852 3193.26 M 4088.202 3188.97 L 4088.202 3193.26 M 4088.202 3188.97 L 4089.642 3188.97 L 4090.252 3189.17 L 4090.662 3189.58 L 4090.862 3189.99 L 4091.072 3190.61 L 4091.072 3191.63 L 4090.862 3192.24 L 4090.662 3192.65 L 4090.252 3193.06 L 4089.642 3193.26 L 4088.202 3193.26 M 4093.642 3188.97 L 4093.242 3189.17 L 4092.832 3189.58 L 4092.622 3189.99 L 4092.422 3190.61 L 4092.422 3191.63 L 4092.622 3192.24 L 4092.832 3192.65 L 4093.242 3193.06 L 4093.642 3193.26 L 4094.462 3193.26 L 4094.872 3193.06 L 4095.282 3192.65 L 4095.492 3192.24 L 4095.692 3191.63 L 4095.692 3190.61 L 4095.492 3189.99 L 4095.282 3189.58 L 4094.872 3189.17 L 4094.462 3188.97 L 4093.642 3188.97 M 4097.042 3190.4 L 4097.042 3193.26 M 4097.042 3191.63 L 4097.242 3191.01 L 4097.652 3190.61 L 4098.062 3190.4 L 4098.682 3190.4 M 4102.482 3190.4 L 4102.482 3193.26 M 4102.482 3191.01 L 4102.072 3190.61 L 4101.662 3190.4 L 4101.052 3190.4 L 4100.642 3190.61 L 4100.232 3191.01 L 4100.032 3191.63 L 4100.032 3192.04 L 4100.232 3192.65 L 4100.642 3193.06 L 4101.052 3193.26 L 4101.662 3193.26 L 4102.072 3193.06 L 4102.482 3192.65 M 4103.832 3190.4 L 4103.832 3193.26 M 4103.832 3191.22 L 4104.442 3190.61 L 4104.852 3190.4 L 4105.472 3190.4 L 4105.882 3190.61 L 4106.082 3191.22 L 4106.082 3193.26 M 4109.892 3190.4 L 4109.892 3193.67 L 4109.682 3194.29 L 4109.482 3194.49 L 4109.072 3194.7 L 4108.452 3194.7 L 4108.042 3194.49 M 4109.892 3191.01 L 4109.482 3190.61 L 4109.072 3190.4 L 4108.452 3190.4 L 4108.042 3190.61 L 4107.642 3191.01 L 4107.432 3191.63 L 4107.432 3192.04 L 4107.642 3192.65 L 4108.042 3193.06 L 4108.452 3193.26 L 4109.072 3193.26 L 4109.482 3193.06 L 4109.892 3192.65 M 4111.242 3191.63 L 4113.692 3191.63 L 4113.692 3191.22 L 4113.492 3190.81 L 4113.282 3190.61 L 4112.872 3190.4 L 4112.262 3190.4 L 4111.852 3190.61 L 4111.442 3191.01 L 4111.242 3191.63 L 4111.242 3192.04 L 4111.442 3192.65 L 4111.852 3193.06 L 4112.262 3193.26 L 4112.872 3193.26 L 4113.282 3193.06 L 4113.692 3192.65 M 4119.212 3190.4 L 4118.802 3190.61 L 4118.392 3191.01 L 4118.192 3191.63 L 4118.192 3192.04 L 4118.392 3192.65 L 4118.802 3193.06 L 4119.212 3193.26 L 4119.832 3193.26 L 4120.242 3193.06 L 4120.642 3192.65 L 4120.852 3192.04 L 4120.852 3191.63 L 4120.642 3191.01 L 4120.242 3190.61 L 4119.832 3190.4 L 4119.212 3190.4 M 4122.202 3190.4 L 4122.202 3193.26 M 4122.202 3191.63 L 4122.402 3191.01 L 4122.812 3190.61 L 4123.222 3190.4 L 4123.842 3190.4 M 4127.642 3190.4 L 4127.642 3193.26 M 4127.642 3191.01 L 4127.232 3190.61 L 4126.822 3190.4 L 4126.212 3190.4 L 4125.802 3190.61 L 4125.392 3191.01 L 4125.192 3191.63 L 4125.192 3192.04 L 4125.392 3192.65 L 4125.802 3193.06 L 4126.212 3193.26 L 4126.822 3193.26 L 4127.232 3193.06 L 4127.642 3192.65 M 4128.992 3190.4 L 4128.992 3193.26 M 4128.992 3191.22 L 4129.602 3190.61 L 4130.012 3190.4 L 4130.632 3190.4 L 4131.042 3190.61 L 4131.242 3191.22 L 4131.242 3193.26 M 4135.042 3190.4 L 4135.042 3193.67 L 4134.842 3194.29 L 4134.642 3194.49 L 4134.232 3194.7 L 4133.612 3194.7 L 4133.202 3194.49 M 4135.042 3191.01 L 4134.642 3190.61 L 4134.232 3190.4 L 4133.612 3190.4 L 4133.202 3190.61 L 4132.792 3191.01 L 4132.592 3191.63 L 4132.592 3192.04 L 4132.792 3192.65 L 4133.202 3193.06 L 4133.612 3193.26 L 4134.232 3193.26 L 4134.642 3193.06 L 4135.042 3192.65 M 4136.392 3191.63 L 4138.852 3191.63 L 4138.852 3191.22 L 4138.642 3190.81 L 4138.442 3190.61 L 4138.032 3190.4 L 4137.422 3190.4 L 4137.012 3190.61 L 4136.602 3191.01 L 4136.392 3191.63 L 4136.392 3192.04 L 4136.602 3192.65 L 4137.012 3193.06 L 4137.422 3193.26 L 4138.032 3193.26 L 4138.442 3193.06 L 4138.852 3192.65 M 4143.762 3188.97 L 4146.012 3188.97 L 4144.782 3190.61 L 4145.392 3190.61 L 4145.802 3190.81 L 4146.012 3191.01 L 4146.212 3191.63 L 4146.212 3192.04 L 4146.012 3192.65 L 4145.602 3193.06 L 4144.992 3193.26 L 4144.372 3193.26 L 4143.762 3193.06 L 4143.552 3192.86 L 4143.352 3192.45 M 4149.202 3188.97 L 4147.562 3193.26 M 4149.202 3188.97 L 4150.842 3193.26 M 4148.182 3191.83 L 4150.222 3191.83 M 4153.412 3188.97 L 4153.002 3189.17 L 4152.592 3189.58 L 4152.392 3189.99 L 4152.192 3190.61 L 4152.192 3191.63 L 4152.392 3192.24 L 4152.592 3192.65 L 4153.002 3193.06 L 4153.412 3193.26 L 4154.232 3193.26 L 4154.642 3193.06 L 4155.052 3192.65 L 4155.252 3192.24 L 4155.462 3191.63 L 4155.462 3190.61 L 4155.252 3189.99 L 4155.052 3189.58 L 4154.642 3189.17 L 4154.232 3188.97 L 4153.412 3188.97 M 4158.852 3188.97 L 4156.812 3191.83 L 4159.882 3191.83 M 4158.852 3188.97 L 4158.852 3193.26 M 4161.232 3188.97 L 4161.232 3192.04 L 4161.432 3192.65 L 4161.842 3193.06 L 4162.452 3193.26 L 4162.862 3193.26 L 4163.482 3193.06 L 4163.892 3192.65 L 4164.092 3192.04 L 4164.092 3188.97 M 4165.442 3188.97 L 4165.442 3193.26 M 4165.442 3188.97 L 4166.872 3188.97 L 4167.492 3189.17 L 4167.892 3189.58 L 4168.102 3189.99 L 4168.302 3190.61 L 4168.302 3191.63 L 4168.102 3192.24 L 4167.892 3192.65 L 4167.492 3193.06 L 4166.872 3193.26 L 4165.442 3193.26" fill="none"  stroke-width="0.6" c_note="note_name" /></g><g c_partid="part_pcbtext" c_etype="" c_origin="4080.392,3200.51" c_rotation="0" c_mirror="0" id="gge585" locked="0" layerid="3" c_shapetype="group" ><path c_fontsize="4.5" c_fontfamily="" c_text="LED2" d="M 4080.392 3195.97 L 4080.392 3200.26 M 4080.392 3200.26 L 4082.842 3200.26 M 4084.192 3195.97 L 4084.192 3200.26 M 4084.192 3195.97 L 4086.852 3195.97 M 4084.192 3198.01 L 4085.832 3198.01 M 4084.192 3200.26 L 4086.852 3200.26 M 4088.202 3195.97 L 4088.202 3200.26 M 4088.202 3195.97 L 4089.642 3195.97 L 4090.252 3196.17 L 4090.662 3196.58 L 4090.862 3196.99 L 4091.072 3197.61 L 4091.072 3198.63 L 4090.862 3199.24 L 4090.662 3199.65 L 4090.252 3200.06 L 4089.642 3200.26 L 4088.202 3200.26 M 4092.622 3196.99 L 4092.622 3196.79 L 4092.832 3196.38 L 4093.032 3196.17 L 4093.442 3195.97 L 4094.262 3195.97 L 4094.672 3196.17 L 4094.872 3196.38 L 4095.082 3196.79 L 4095.082 3197.2 L 4094.872 3197.61 L 4094.462 3198.22 L 4092.422 3200.26 L 4095.282 3200.26" fill="none"  stroke-width="0.6" c_note="note_pre" /></g><g c_partid="part_pcbtext" c_etype="" c_origin="4156,3171.5" c_rotation="90" c_mirror="0" id="gge672" locked="0" layerid="3" c_shapetype="group" display="none"><path c_fontsize="4.5" c_fontfamily="" c_text="100" d="M 4152.28 3171.5 L 4152.07 3171.09 L 4151.46 3170.48 L 4155.75 3170.48 M 4151.46 3167.9 L 4151.66 3168.51 L 4152.28 3168.92 L 4153.3 3169.13 L 4153.91 3169.13 L 4154.94 3168.92 L 4155.55 3168.51 L 4155.75 3167.9 L 4155.75 3167.49 L 4155.55 3166.88 L 4154.94 3166.47 L 4153.91 3166.26 L 4153.3 3166.26 L 4152.28 3166.47 L 4151.66 3166.88 L 4151.46 3167.49 L 4151.46 3167.9 M 4151.46 3163.69 L 4151.66 3164.3 L 4152.28 3164.71 L 4153.3 3164.91 L 4153.91 3164.91 L 4154.94 3164.71 L 4155.55 3164.3 L 4155.75 3163.69 L 4155.75 3163.28 L 4155.55 3162.66 L 4154.94 3162.25 L 4153.91 3162.05 L 4153.3 3162.05 L 4152.28 3162.25 L 4151.66 3162.66 L 4151.46 3163.28 L 4151.46 3163.69" fill="none"  stroke-width="0.6" c_note="note_name" /></g><g c_partid="part_pcbtext" c_etype="" c_origin="4163,3171.5" c_rotation="90" c_mirror="0" id="gge678" locked="0" layerid="3" c_shapetype="group" ><path c_fontsize="4.5" c_fontfamily="" c_text="R3" d="M 4158.46 3171.5 L 4162.75 3171.5 M 4158.46 3171.5 L 4158.46 3169.66 L 4158.66 3169.05 L 4158.87 3168.84 L 4159.28 3168.64 L 4159.69 3168.64 L 4160.1 3168.84 L 4160.3 3169.05 L 4160.5 3169.66 L 4160.5 3171.5 M 4160.5 3170.07 L 4162.75 3168.64 M 4158.46 3166.88 L 4158.46 3164.63 L 4160.1 3165.85 L 4160.1 3165.24 L 4160.3 3164.83 L 4160.5 3164.63 L 4161.12 3164.42 L 4161.53 3164.42 L 4162.14 3164.63 L 4162.55 3165.04 L 4162.75 3165.65 L 4162.75 3166.26 L 4162.55 3166.88 L 4162.35 3167.08 L 4161.94 3167.29" fill="none"  stroke-width="0.6" c_note="note_pre" /></g><g c_partid="part_pcbtext" c_etype="" c_origin="4027,3199.685" c_rotation="180" c_mirror="0" id="gge756" locked="0" layerid="3" c_shapetype="group" display="none"><path c_fontsize="4.5" c_fontfamily="" c_text="ALPS" d="M 4025.36 3204.225 L 4027 3199.935 M 4025.36 3204.225 L 4023.73 3199.935 M 4026.39 3201.365 L 4024.34 3201.365 M 4022.38 3204.225 L 4022.38 3199.935 M 4022.38 3199.935 L 4019.92 3199.935 M 4018.57 3204.225 L 4018.57 3199.935 M 4018.57 3204.225 L 4016.73 3204.225 L 4016.12 3204.025 L 4015.91 3203.815 L 4015.71 3203.405 L 4015.71 3202.795 L 4015.91 3202.385 L 4016.12 3202.185 L 4016.73 3201.975 L 4018.57 3201.975 M 4011.5 3203.615 L 4011.9 3204.025 L 4012.52 3204.225 L 4013.34 3204.225 L 4013.95 3204.025 L 4014.36 3203.615 L 4014.36 3203.205 L 4014.15 3202.795 L 4013.95 3202.585 L 4013.54 3202.385 L 4012.31 3201.975 L 4011.9 3201.775 L 4011.7 3201.565 L 4011.5 3201.155 L 4011.5 3200.545 L 4011.9 3200.135 L 4012.52 3199.935 L 4013.34 3199.935 L 4013.95 3200.135 L 4014.36 3200.545" fill="none"  stroke-width="0.6" c_note="note_name" /></g><g c_partid="part_pcbtext" c_etype="" c_origin="4027,3192.685" c_rotation="180" c_mirror="0" id="gge762" locked="0" layerid="3" c_shapetype="group" ><path c_fontsize="4.5" c_fontfamily="" c_text="R4" d="M 4027 3197.225 L 4027 3192.935 M 4027 3197.225 L 4025.16 3197.225 L 4024.55 3197.025 L 4024.34 3196.815 L 4024.14 3196.405 L 4024.14 3195.995 L 4024.34 3195.585 L 4024.55 3195.385 L 4025.16 3195.185 L 4027 3195.185 M 4025.57 3195.185 L 4024.14 3192.935 M 4020.74 3197.225 L 4022.79 3194.365 L 4019.72 3194.365 M 4020.74 3197.225 L 4020.74 3192.935" fill="none"  stroke-width="0.6" c_note="note_pre" /></g><g c_partid="part_pcbtext" c_etype="" c_origin="4219,3170.906" c_rotation="270" c_mirror="0" id="gge876" locked="0" layerid="3" c_shapetype="group" display="none"><path c_fontsize="4.5" c_fontfamily="" c_text="10K" d="M 4222.72 3170.9055 L 4222.93 3171.3155 L 4223.54 3171.9255 L 4219.25 3171.9255 M 4223.54 3174.5055 L 4223.34 3173.8955 L 4222.72 3173.4855 L 4221.7 3173.2755 L 4221.09 3173.2755 L 4220.06 3173.4855 L 4219.45 3173.8955 L 4219.25 3174.5055 L 4219.25 3174.9155 L 4219.45 3175.5255 L 4220.06 3175.9355 L 4221.09 3176.1455 L 4221.7 3176.1455 L 4222.72 3175.9355 L 4223.34 3175.5255 L 4223.54 3174.9155 L 4223.54 3174.5055 M 4223.54 3177.4955 L 4219.25 3177.4955 M 4223.54 3180.3555 L 4220.68 3177.4955 M 4221.7 3178.5155 L 4219.25 3180.3555" fill="none"  stroke-width="0.6" c_note="note_name" /></g><g c_partid="part_pcbtext" c_etype="" c_origin="4212,3170.906" c_rotation="270" c_mirror="0" id="gge882" locked="0" layerid="3" c_shapetype="group" ><path c_fontsize="4.5" c_fontfamily="" c_text="R5" d="M 4216.54 3170.9055 L 4212.25 3170.9055 M 4216.54 3170.9055 L 4216.54 3172.7455 L 4216.34 3173.3555 L 4216.13 3173.5655 L 4215.72 3173.7655 L 4215.31 3173.7655 L 4214.9 3173.5655 L 4214.7 3173.3555 L 4214.5 3172.7455 L 4214.5 3170.9055 M 4214.5 3172.3355 L 4212.25 3173.7655 M 4216.54 3177.5755 L 4216.54 3175.5255 L 4214.7 3175.3255 L 4214.9 3175.5255 L 4215.11 3176.1455 L 4215.11 3176.7555 L 4214.9 3177.3655 L 4214.5 3177.7755 L 4213.88 3177.9855 L 4213.47 3177.9855 L 4212.86 3177.7755 L 4212.45 3177.3655 L 4212.25 3176.7555 L 4212.25 3176.1455 L 4212.45 3175.5255 L 4212.65 3175.3255 L 4213.06 3175.1155" fill="none"  stroke-width="0.6" c_note="note_pre" /></g><g c_partid="part_pcbtext" c_etype="" c_origin="4153.5,3172" c_rotation="270" c_mirror="0" id="gge957" locked="0" layerid="3" c_shapetype="group" display="none"><path c_fontsize="4.5" c_fontfamily="" c_text="270" d="M 4157.02 3172.2 L 4157.22 3172.2 L 4157.63 3172.41 L 4157.84 3172.61 L 4158.04 3173.02 L 4158.04 3173.84 L 4157.84 3174.25 L 4157.63 3174.45 L 4157.22 3174.66 L 4156.81 3174.66 L 4156.4 3174.45 L 4155.79 3174.05 L 4153.75 3172 L 4153.75 3174.86 M 4158.04 3179.08 L 4153.75 3177.03 M 4158.04 3176.21 L 4158.04 3179.08 M 4158.04 3181.65 L 4157.84 3181.04 L 4157.22 3180.63 L 4156.2 3180.43 L 4155.59 3180.43 L 4154.56 3180.63 L 4153.95 3181.04 L 4153.75 3181.65 L 4153.75 3182.06 L 4153.95 3182.68 L 4154.56 3183.09 L 4155.59 3183.29 L 4156.2 3183.29 L 4157.22 3183.09 L 4157.84 3182.68 L 4158.04 3182.06 L 4158.04 3181.65" fill="none"  stroke-width="0.6" c_note="note_name" /></g><g c_partid="part_pcbtext" c_etype="" c_origin="4146.5,3172" c_rotation="270" c_mirror="0" id="gge963" locked="0" layerid="3" c_shapetype="group" ><path c_fontsize="4.5" c_fontfamily="" c_text="R6" d="M 4151.04 3172 L 4146.75 3172 M 4151.04 3172 L 4151.04 3173.84 L 4150.84 3174.45 L 4150.63 3174.66 L 4150.22 3174.86 L 4149.81 3174.86 L 4149.4 3174.66 L 4149.2 3174.45 L 4149 3173.84 L 4149 3172 M 4149 3173.43 L 4146.75 3174.86 M 4150.43 3178.67 L 4150.84 3178.46 L 4151.04 3177.85 L 4151.04 3177.44 L 4150.84 3176.83 L 4150.22 3176.42 L 4149.2 3176.21 L 4148.18 3176.21 L 4147.36 3176.42 L 4146.95 3176.83 L 4146.75 3177.44 L 4146.75 3177.65 L 4146.95 3178.26 L 4147.36 3178.67 L 4147.97 3178.87 L 4148.18 3178.87 L 4148.79 3178.67 L 4149.2 3178.26 L 4149.4 3177.65 L 4149.4 3177.44 L 4149.2 3176.83 L 4148.79 3176.42 L 4148.18 3176.21" fill="none"  stroke-width="0.6" c_note="note_pre" /></g><g c_partid="part_pcbtext" c_etype="" c_origin="4158,3214.5" c_rotation="0" c_mirror="0" id="gge1041" locked="0" layerid="3" c_shapetype="group" display="none"><path c_fontsize="4.5" c_fontfamily="" c_text="LM 317" d="M 4158 3209.96 L 4158 3214.25 M 4158 3214.25 L 4160.45 3214.25 M 4161.8 3209.96 L 4161.8 3214.25 M 4161.8 3209.96 L 4163.44 3214.25 M 4165.08 3209.96 L 4163.44 3214.25 M 4165.08 3209.96 L 4165.08 3214.25 M 4169.99 3209.96 L 4172.24 3209.96 L 4171.01 3211.6 L 4171.62 3211.6 L 4172.03 3211.8 L 4172.24 3212 L 4172.44 3212.62 L 4172.44 3213.03 L 4172.24 3213.64 L 4171.83 3214.05 L 4171.21 3214.25 L 4170.6 3214.25 L 4169.99 3214.05 L 4169.78 3213.85 L 4169.58 3213.44 M 4173.79 3210.78 L 4174.2 3210.57 L 4174.81 3209.96 L 4174.81 3214.25 M 4179.03 3209.96 L 4176.98 3214.25 M 4176.16 3209.96 L 4179.03 3209.96" fill="none"  stroke-width="0.6" c_note="note_name" /></g><g c_partid="part_pcbtext" c_etype="" c_origin="4158,3221.5" c_rotation="0" c_mirror="0" id="gge1047" locked="0" layerid="3" c_shapetype="group" ><path c_fontsize="4.5" c_fontfamily="" c_text="U2" d="M 4158 3216.96 L 4158 3220.03 L 4158.2 3220.64 L 4158.61 3221.05 L 4159.23 3221.25 L 4159.64 3221.25 L 4160.25 3221.05 L 4160.66 3220.64 L 4160.86 3220.03 L 4160.86 3216.96 M 4162.42 3217.98 L 4162.42 3217.78 L 4162.62 3217.37 L 4162.83 3217.16 L 4163.24 3216.96 L 4164.05 3216.96 L 4164.46 3217.16 L 4164.67 3217.37 L 4164.87 3217.78 L 4164.87 3218.19 L 4164.67 3218.6 L 4164.26 3219.21 L 4162.21 3221.25 L 4165.08 3221.25" fill="none"  stroke-width="0.6" c_note="note_pre" /></g><path d="M 4161.23 3085.49 A 1.1811 1.1811 0 0 0 4161.23 3083.13" locked="0"  fill="none" stroke-width="0.8" c_helper_type="arc2" net="" layerid="3" id="gge369" /><path d="M 4161.23 3080.76 A 1.1811 1.1811 0 0 0 4161.23 3083.13" locked="0"  fill="none" stroke-width="0.8" c_helper_type="arc2" net="" layerid="3" id="gge372" /><path d="M 4161.23 3095.92 A 1.1811 1.1811 0 0 0 4161.23 3098.28" locked="0"  fill="none" stroke-width="0.8" c_helper_type="arc2" net="" layerid="3" id="gge375" /><path d="M 4161.23 3100.65 A 1.1811 1.1811 0 0 0 4161.23 3098.28" locked="0"  fill="none" stroke-width="0.8" c_helper_type="arc2" net="" layerid="3" id="gge378" /><path d="M 4089.7993 3205.7756 A 8.1712 8.1712 0 1 0 4089.7993 3215.2244" locked="0"  fill="none" stroke-width="1" c_helper_type="arc2" net="" layerid="3" id="gge618" /><path d="M 4157.79 3228.07 A 0.7874 0.7874 0 1 0 4157.79 3228.08" locked="0"  fill="none" stroke-width="1.5748" c_helper_type="arc2" net="" layerid="3" id="gge1053" /><circle cx="4215" cy="3089" r="24.606" stroke-width="1" fill="none" layerid="3" id="gge39" locked="0"  /><circle cx="4215" cy="3242.5" r="19.685" stroke-width="1" fill="none" layerid="3" id="gge132" locked="0"  /><path d="M 4234.685 3103.7633 L 4195.315 3103.7633 L 4198.1978 3106.6461 A 23.7619 23.7619 0 0 0 4215 3113.6058 A 23.7619 23.7619 0 0 0 4231.8022 3106.6461 L 4234.685 3103.7633 Z " stroke-width="0"   net="" type="solid" layerid="3" id="gge42" locked="0" c_teardrop="" c_targetpad="" c_targetwire="" /><path d="M 4229 3256.5 L 4201 3256.5 L 4205 3259.5 L 4211 3261.5 L 4217 3262.5 L 4221 3261.5 Z " stroke-width="0"   net="" type="solid" layerid="3" id="gge129" locked="0" c_teardrop="" c_targetpad="" c_targetwire="" /><polyline points="4050.5 3050 4255 3050" stroke-width="1"  stroke-linecap="round" fill="none" layerid="10" net="" id="gge6039" locked="0" /><polyline points="4255 3050.5 4255 3169 4255 3272" stroke-width="1"  stroke-linecap="round" fill="none" layerid="10" net="" id="gge6033" locked="0" /><polyline points="4255 3272 4050 3272" stroke-width="1"  stroke-linecap="round" fill="none" layerid="10" net="" id="gge6042" locked="0" /><polyline points="4050 3272 4050 3050" stroke-width="1"  stroke-linecap="round" fill="none" layerid="10" net="" id="gge6036" locked="0" /></svg>